<?xml version="1.0" encoding="UTF-8"?>
<svg width="24px" height="24px" viewBox="0 0 24 24" version="1.1" xmlns="http://www.w3.org/2000/svg" xmlns:xlink="http://www.w3.org/1999/xlink">
    <!-- Generator: Sketch 49.3 (51167) - http://www.bohemiancoding.com/sketch -->
    <title>arrow-left-icon</title>
    <desc>Created with Sketch.</desc>
    <defs></defs>
    <g id="arrow-left-icon" stroke="none" stroke-width="1" fill="none" fill-rule="evenodd">
        <path d="M6.41621832,13.0000107 L11.7091115,18.2929039 C12.0996358,18.6834282 12.0996358,19.3165932 11.7091115,19.7071175 C11.3185872,20.0976418 10.6854223,20.0976418 10.294898,19.7071175 L3.29489797,12.7071175 C2.66493311,12.0771526 3.1110999,11.0000107 4.00200475,11.0000107 L20.0020048,11.0000107 C20.5542895,11.0000107 21.0020048,11.447726 21.0020048,12.0000107 C21.0020048,12.5522955 20.5542895,13.0000107 20.0020048,13.0000107 L6.41621832,13.0000107 Z M10.3376409,4.25260139 C10.7504237,3.88568338 11.3824961,3.9228641 11.7494141,4.33564687 C12.1163321,4.74842964 12.0791514,5.38050201 11.6663686,5.74742003 L7.16636859,9.74742003 C6.75358582,10.114338 6.12151345,10.0771573 5.75459544,9.66437455 C5.38767742,9.25159178 5.42485815,8.61951941 5.83764092,8.25260139 L10.3376409,4.25260139 Z" id="icon" fill="#000000" fill-rule="nonzero"></path>
    </g>
</svg>