<?xml version="1.0" encoding="UTF-8"?>
<svg width="24px" height="24px" viewBox="0 0 24 24" version="1.1" xmlns="http://www.w3.org/2000/svg" xmlns:xlink="http://www.w3.org/1999/xlink">
    <!-- Generator: Sketch 49.3 (51167) - http://www.bohemiancoding.com/sketch -->
    <title>arrow-right-icon</title>
    <desc>Created with Sketch.</desc>
    <defs></defs>
    <g id="arrow-right-icon" stroke="none" stroke-width="1" fill="none" fill-rule="evenodd">
        <path d="M17.5857864,11 L12.2928932,5.70710678 C11.9023689,5.31658249 11.9023689,4.68341751 12.2928932,4.29289322 C12.6834175,3.90236893 13.3165825,3.90236893 13.7071068,4.29289322 L20.7071068,11.2928932 C21.3370716,11.9228581 20.8909049,13 20,13 L4,13 C3.44771525,13 3,12.5522847 3,12 C3,11.4477153 3.44771525,11 4,11 L17.5857864,11 Z M16.8356362,14.2525907 C17.2484189,13.8856727 17.8804913,13.9228534 18.2474093,14.3356362 C18.6143273,14.7484189 18.5771466,15.3804913 18.1643638,15.7474093 L13.6643638,19.7474093 C13.2515811,20.1143273 12.6195087,20.0771466 12.2525907,19.6643638 C11.8856727,19.2515811 11.9228534,18.6195087 12.3356362,18.2525907 L16.8356362,14.2525907 Z" id="icon" fill="#000000" fill-rule="nonzero"></path>
    </g>
</svg>