<?xml version="1.0" encoding="UTF-8"?>
<svg width="440px" height="440px" viewBox="0 0 440 440" version="1.1" xmlns="http://www.w3.org/2000/svg" xmlns:xlink="http://www.w3.org/1999/xlink">
    <!-- Generator: Sketch 49.3 (51167) - http://www.bohemiancoding.com/sketch -->
    <title>bg-circles-01</title>
    <desc>Created with Sketch.</desc>
    <defs></defs>
    <g id="bg-circles-01" stroke="none" stroke-width="1" fill="none" fill-rule="evenodd" fill-opacity="0" opacity="0.100000001" stroke-linecap="round" stroke-linejoin="round">
        <g id="circles" transform="translate(-72.000000, -73.000000)" fill="#F4F5F9" stroke="#354C73" stroke-width="3">
            <path d="M110.551468,177.485249 C89.3601876,210.960296 77.0845771,250.693558 77.0845771,293.308287 C77.0845771,331.177097 86.7782188,366.770509 103.807754,397.71898 M153.734552,457.881071 C171.136125,472.642545 190.882311,484.683864 212.328888,493.355415 M240.457481,502.513841 C257.16762,506.696001 274.646384,508.915423 292.639221,508.915423 C351.125894,508.915423 404.180834,485.464797 443.061219,447.379527 M475.448532,408.514751 C486.52015,391.019935 495.159211,371.806667 500.884796,351.360103 M505.844394,329.229221 C507.863579,317.322561 508.915423,305.082818 508.915423,292.595241 C508.915423,264.525654 503.600868,237.708281 493.931476,213.111294 M466.811915,165.6099 C459.82169,156.059872 452.070729,147.106119 443.648739,138.83872 M423.211433,121.132575 C386.972176,93.4905127 341.768407,77.0845771 292.748623,77.0845771 C222.903459,77.0845771 160.80541,110.391223 121.347239,162.050104" id="Circle" transform="translate(293.000000, 293.000000) rotate(28.000000) translate(-293.000000, -293.000000) "></path>
            <path d="M293.185304,107.913153 C190.86232,107.913153 107.913153,190.86232 107.913153,293.185304 M293.185304,478.457454 C353.711913,478.457454 407.459587,449.433383 441.26977,404.543796 M461.217246,371.335486 C472.280033,347.58961 478.457454,321.108864 478.457454,293.185304" id="Circle" transform="translate(293.185304, 293.185304) rotate(-40.000000) translate(-293.185304, -293.185304) "></path>
            <path d="M137.744253,293 C137.744253,308.616417 140.04989,323.694323 144.339325,337.911881 M153.035064,360.270152 C178.101016,412.328349 231.354861,448.255747 293,448.255747 M448.255747,293 C448.255747,207.254619 378.745381,137.744253 293,137.744253" id="Circle" transform="translate(293.000000, 293.000000) rotate(-345.000000) translate(-293.000000, -293.000000) "></path>
        </g>
    </g>
</svg>