<?xml version="1.0" encoding="UTF-8"?>
<svg width="24px" height="24px" viewBox="0 0 24 24" version="1.1" xmlns="http://www.w3.org/2000/svg" xmlns:xlink="http://www.w3.org/1999/xlink">
    <!-- Generator: Sketch 49.3 (51167) - http://www.bohemiancoding.com/sketch -->
    <title>chat-icon-color-6</title>
    <desc>Created with Sketch.</desc>
    <defs></defs>
    <g id="chat-icon" stroke="none" stroke-width="1" fill="none" fill-rule="evenodd">
        <path d="M19,7.82929429 C17.8348076,7.41745788 17,6.30621883 17,5 C17,3.34314575 18.3431458,2 20,2 C21.6568542,2 23,3.34314575 23,5 C23,6.30621883 22.1651924,7.41745788 21,7.82929429 L21,17 C21,17.5522847 20.5522847,18 20,18 L15.6806248,18 L12.7808688,21.624695 C12.3805435,22.1251017 11.6194565,22.1251017 11.2191312,21.624695 L8.31937515,18 L4,18 C3.44771525,18 3,17.5522847 3,17 L3,5 C3,4.44771525 3.44771525,4 4,4 L15,4 C15.5522847,4 16,4.44771525 16,5 C16,5.55228475 15.5522847,6 15,6 L5,6 L5,16 L8.8,16 C9.10378372,16 9.39109662,16.1380897 9.58086881,16.375305 L12,19.3992189 L14.4191312,16.375305 C14.6089034,16.1380897 14.8962163,16 15.2,16 L19,16 L19,7.82929429 Z M20,6 C20.5522847,6 21,5.55228475 21,5 C21,4.44771525 20.5522847,4 20,4 C19.4477153,4 19,4.44771525 19,5 C19,5.55228475 19.4477153,6 20,6 Z M8,10 C7.44771525,10 7,9.55228475 7,9 C7,8.44771525 7.44771525,8 8,8 L16,8 C16.5522847,8 17,8.44771525 17,9 C17,9.55228475 16.5522847,10 16,10 L8,10 Z M8,14 C7.44771525,14 7,13.5522847 7,13 C7,12.4477153 7.44771525,12 8,12 L13,12 C13.5522847,12 14,12.4477153 14,13 C14,13.5522847 13.5522847,14 13,14 L8,14 Z" id="icon" fill="#00D5BB" fill-rule="nonzero"></path>
    </g>
</svg>