<?xml version="1.0" encoding="UTF-8"?>
<svg width="24px" height="24px" viewBox="0 0 24 24" version="1.1" xmlns="http://www.w3.org/2000/svg" xmlns:xlink="http://www.w3.org/1999/xlink">
    <!-- Generator: Sketch 49.3 (51167) - http://www.bohemiancoding.com/sketch -->
    <title>cms-icon-color-2</title>
    <desc>Created with Sketch.</desc>
    <defs></defs>
    <g id="cms-icon" stroke="none" stroke-width="1" fill="none" fill-rule="evenodd">
        <path d="M16.9846067,7.00017112 L11.5040322,3.86841426 C11.0245147,3.59440429 10.857918,2.98354963 11.131928,2.50403218 C11.4059379,2.02451474 12.0167926,1.85791801 12.4963101,2.13192798 L19.4963101,6.13192798 C20.1681248,6.51582212 20.1681248,7.48452012 19.4963101,7.86841426 L12.4963101,11.8684143 C12.1888774,12.0440901 11.8114648,12.0440901 11.5040322,11.8684143 L4.50403218,7.86841426 C3.83221743,7.48452012 3.83221743,6.51582212 4.50403218,6.13192798 L8.36869001,3.92355208 C8.84820746,3.64954211 9.45906212,3.81613883 9.73307209,4.29565628 C10.0070821,4.77517373 9.84048533,5.38602839 9.36096789,5.66003836 L7.01573556,7.00017112 L12.0001711,9.84842001 L16.9846067,7.00017112 Z M18.5040322,11.131928 C18.9835496,10.857918 19.5944043,11.0245147 19.8684143,11.5040322 C20.1424242,11.9835496 19.9758275,12.5944043 19.4963101,12.8684143 L12.4963101,16.8684143 C12.1888774,17.0440901 11.8114648,17.0440901 11.5040322,16.8684143 L4.50403218,12.8684143 C4.02451474,12.5944043 3.85791801,11.9835496 4.13192798,11.5040322 C4.40593795,11.0245147 5.01679261,10.857918 5.49631006,11.131928 L12.0001711,14.84842 L18.5040322,11.131928 Z M18.5040322,16.131928 C18.9835496,15.857918 19.5944043,16.0245147 19.8684143,16.5040322 C20.1424242,16.9835496 19.9758275,17.5944043 19.4963101,17.8684143 L12.4963101,21.8684143 C12.1888774,22.0440901 11.8114648,22.0440901 11.5040322,21.8684143 L4.50403218,17.8684143 C4.02451474,17.5944043 3.85791801,16.9835496 4.13192798,16.5040322 C4.40593795,16.0245147 5.01679261,15.857918 5.49631006,16.131928 L12.0001711,19.84842 L18.5040322,16.131928 Z" id="icon" fill="#FC3762" fill-rule="nonzero"></path>
    </g>
</svg>