<?xml version="1.0" encoding="UTF-8"?>
<svg width="24px" height="24px" viewBox="0 0 24 24" version="1.1" xmlns="http://www.w3.org/2000/svg" xmlns:xlink="http://www.w3.org/1999/xlink">
    <!-- Generator: Sketch 49.3 (51167) - http://www.bohemiancoding.com/sketch -->
    <title>design-icon-color-1</title>
    <desc>Created with Sketch.</desc>
    <defs></defs>
    <g id="design-icon" stroke="none" stroke-width="1" fill="none" fill-rule="evenodd">
        <path d="M8.29596278,14.2934155 C8.10854395,13.9017802 8.0035918,13.4631465 8.0035918,13 C8.0035918,11.3431458 9.34673755,10 11.0035918,10 C12.660446,10 14.0035918,11.3431458 14.0035918,13 C14.0035918,14.6568542 12.660446,16 11.0035918,16 C10.5404453,16 10.1018116,15.8950478 9.71017634,15.707629 L6.91720058,18.5006048 L15.2157134,17.1175193 L17.0420678,10.7252789 C17.0887551,10.5618734 17.1763163,10.4130619 17.296485,10.2928932 L18.5893782,9 L15.0035918,5.41421356 L13.7106986,6.70710678 C13.5905298,6.82727551 13.4417184,6.91483667 13.2783129,6.96152395 L6.85559634,8.79658583 L5.48139421,15.2095291 C5.36567449,15.7495545 4.83408807,16.0935221 4.29406271,15.9778024 C3.75403734,15.8620827 3.41006966,15.3304963 3.52578938,14.7904709 L5.02578938,7.79047091 C5.10321342,7.42915874 5.37357362,7.13998949 5.72887067,7.03847605 L12.4797148,5.10966345 L14.296485,3.29289322 C14.6870093,2.90236893 15.3201743,2.90236893 15.7106986,3.29289322 L20.7106986,8.29289322 C21.1012229,8.68341751 21.1012229,9.31658249 20.7106986,9.70710678 L18.8939283,11.523877 L16.9651157,18.2747211 C16.8590572,18.6459261 16.5487971,18.9229262 16.1679908,18.9863939 L4.16799078,20.9863939 C3.20838843,21.1463276 2.60858405,19.9807942 3.29648501,19.2928932 L8.29596278,14.2934155 Z M11.0035918,14 C11.5558765,14 12.0035918,13.5522847 12.0035918,13 C12.0035918,12.4477153 11.5558765,12 11.0035918,12 C10.451307,12 10.0035918,12.4477153 10.0035918,13 C10.0035918,13.5522847 10.451307,14 11.0035918,14 Z" id="icon" fill="#2583FD" fill-rule="nonzero"></path>
    </g>
</svg>