<?xml version="1.0" encoding="UTF-8"?>
<svg width="100px" height="24px" viewBox="0 0 100 24" version="1.1" xmlns="http://www.w3.org/2000/svg" xmlns:xlink="http://www.w3.org/1999/xlink">
    <!-- Generator: Sketch 49.3 (51167) - http://www.bohemiancoding.com/sketch -->
    <title>logo-dark</title>
    <desc>Created with Sketch.</desc>
    <defs></defs>
    <g id="logo" stroke="none" stroke-width="1" fill="none" fill-rule="evenodd">
        <path d="M41.848,12.6 C41.9500005,12.792001 42.0444996,12.991499 42.1315,13.1985 C42.2185004,13.405501 42.3039996,13.6139989 42.388,13.824 C42.4720004,13.6079989 42.5589996,13.395001 42.649,13.185 C42.7390005,12.9749989 42.8349995,12.774001 42.937,12.582 L46.789,5.373 C46.8370002,5.28299955 46.8864997,5.21100027 46.9375,5.157 C46.9885003,5.10299973 47.0454997,5.06400012 47.1085,5.04 C47.1715003,5.01599988 47.2419996,5.00100003 47.32,4.995 C47.3980004,4.98899997 47.4909995,4.986 47.599,4.986 L49.426,4.986 L49.426,18 L47.293,18 L47.293,9.594 C47.293,9.43799922 47.2975,9.26700093 47.3065,9.081 C47.3155,8.89499907 47.3289999,8.70600096 47.347,8.514 L43.414,15.894 C43.3239996,16.0620008 43.2070007,16.1924995 43.063,16.2855 C42.9189993,16.3785005 42.751001,16.425 42.559,16.425 L42.226,16.425 C42.033999,16.425 41.8660007,16.3785005 41.722,16.2855 C41.5779993,16.1924995 41.4610005,16.0620008 41.371,15.894 L37.384,8.487 C37.4080001,8.68500099 37.4245,8.87849905 37.4335,9.0675 C37.4425,9.25650094 37.447,9.43199919 37.447,9.594 L37.447,18 L35.314,18 L35.314,4.986 L37.141,4.986 C37.2490005,4.986 37.3419996,4.98899997 37.42,4.995 C37.4980004,5.00100003 37.5684997,5.01599988 37.6315,5.04 C37.6945003,5.06400012 37.7529997,5.10299973 37.807,5.157 C37.8610003,5.21100027 37.9119998,5.28299955 37.96,5.373 L41.848,12.6 Z M59.164,18 L58.165,18 C57.954999,18 57.7900006,17.9685003 57.67,17.9055 C57.5499994,17.8424997 57.4600003,17.715001 57.4,17.523 L57.202,16.866 C56.9679988,17.076001 56.7385011,17.2604992 56.5135,17.4195 C56.2884989,17.5785008 56.0560012,17.7119995 55.816,17.82 C55.5759988,17.9280005 55.3210014,18.0089997 55.051,18.063 C54.7809987,18.1170003 54.4810017,18.144 54.151,18.144 C53.7609981,18.144 53.4010017,18.0915005 53.071,17.9865 C52.7409984,17.8814995 52.4575012,17.724001 52.2205,17.514 C51.9834988,17.3039989 51.7990007,17.0430016 51.667,16.731 C51.5349993,16.4189984 51.469,16.0560021 51.469,15.642 C51.469,15.2939983 51.5604991,14.9505017 51.7435,14.6115 C51.9265009,14.2724983 52.2309979,13.9665014 52.657,13.6935 C53.0830021,13.4204986 53.6499965,13.1940009 54.358,13.014 C55.0660035,12.8339991 55.9449948,12.7320001 56.995,12.708 L56.995,12.168 C56.995,11.5499969 56.8645013,11.0925015 56.6035,10.7955 C56.3424987,10.4984985 55.9630025,10.35 55.465,10.35 C55.1049982,10.35 54.8050012,10.3919996 54.565,10.476 C54.3249988,10.5600004 54.1165009,10.6544995 53.9395,10.7595 C53.7624991,10.8645005 53.5990008,10.9589996 53.449,11.043 C53.2989993,11.1270004 53.1340009,11.169 52.954,11.169 C52.8039993,11.169 52.6750005,11.1300004 52.567,11.052 C52.4589995,10.9739996 52.3720003,10.8780006 52.306,10.764 L51.901,10.053 C52.9630053,9.08099514 54.2439925,8.595 55.744,8.595 C56.2840027,8.595 56.7654979,8.68349911 57.1885,8.8605 C57.6115021,9.03750088 57.9699985,9.28349842 58.264,9.5985 C58.5580015,9.91350157 58.7814992,10.2899978 58.9345,10.728 C59.0875008,11.1660022 59.164,11.6459974 59.164,12.168 L59.164,18 Z M54.844,16.614 C55.0720011,16.614 55.281999,16.5930002 55.474,16.551 C55.666001,16.5089998 55.8474991,16.4460004 56.0185,16.362 C56.1895009,16.2779996 56.3544992,16.1745006 56.5135,16.0515 C56.6725008,15.9284994 56.8329992,15.7830008 56.995,15.615 L56.995,14.058 C56.3469968,14.0880001 55.8055022,14.1434996 55.3705,14.2245 C54.9354978,14.3055004 54.5860013,14.4089994 54.322,14.535 C54.0579987,14.6610006 53.8705006,14.8079992 53.7595,14.976 C53.6484994,15.1440008 53.593,15.326999 53.593,15.525 C53.593,15.9150019 53.7084988,16.1939992 53.9395,16.362 C54.1705012,16.5300008 54.4719981,16.614 54.844,16.614 Z M63.601,4.626 L63.601,12.285 L64.015,12.285 C64.1650008,12.285 64.2819996,12.2640002 64.366,12.222 C64.4500004,12.1799998 64.5399995,12.1020006 64.636,11.988 L66.931,9.153 C67.0330005,9.0329994 67.1409994,8.93850034 67.255,8.8695 C67.3690006,8.80049965 67.5189991,8.766 67.705,8.766 L69.739,8.766 L66.868,12.195 C66.7659995,12.3210006 66.6610005,12.4364995 66.553,12.5415 C66.4449995,12.6465005 66.3280006,12.7379996 66.202,12.816 C66.3280006,12.9060004 66.4389995,13.0109994 66.535,13.131 C66.6310005,13.2510006 66.7269995,13.3799993 66.823,13.518 L69.901,18 L67.894,18 C67.7199991,18 67.5730006,17.9700003 67.453,17.91 C67.3329994,17.8499997 67.2250005,17.7480007 67.129,17.604 L64.78,14.103 C64.6899996,13.9649993 64.6000005,13.8750002 64.51,13.833 C64.4199996,13.7909998 64.2850009,13.77 64.105,13.77 L63.601,13.77 L63.601,18 L61.378,18 L61.378,4.626 L63.601,4.626 Z M75.094,8.622 C75.6760029,8.622 76.2114976,8.71499907 76.7005,8.901 C77.1895024,9.08700093 77.6109982,9.35849821 77.965,9.7155 C78.3190018,10.0725018 78.594999,10.5104974 78.793,11.0295 C78.991001,11.5485026 79.09,12.1409967 79.09,12.807 C79.09,12.9750008 79.0825001,13.1144994 79.0675,13.2255 C79.0524999,13.3365006 79.0255002,13.4234997 78.9865,13.4865 C78.9474998,13.5495003 78.8950003,13.5944999 78.829,13.6215 C78.7629997,13.6485001 78.6790005,13.662 78.577,13.662 L72.871,13.662 C72.9370003,14.6100047 73.1919978,15.3059978 73.636,15.75 C74.0800022,16.1940022 74.6679963,16.416 75.4,16.416 C75.7600018,16.416 76.0704987,16.3740004 76.3315,16.29 C76.5925013,16.2059996 76.820499,16.1130005 77.0155,16.011 C77.210501,15.9089995 77.3814993,15.8160004 77.5285,15.732 C77.6755007,15.6479996 77.8179993,15.606 77.956,15.606 C78.0460005,15.606 78.1239997,15.6239998 78.19,15.66 C78.2560003,15.6960002 78.3129998,15.7469997 78.361,15.813 L79.009,16.623 C78.7629988,16.9110014 78.4870015,17.152499 78.181,17.3475 C77.8749985,17.542501 77.5555017,17.6984994 77.2225,17.8155 C76.8894983,17.9325006 76.5505017,18.0149998 76.2055,18.063 C75.8604983,18.1110002 75.5260016,18.135 75.202,18.135 C74.5599968,18.135 73.9630028,18.0285011 73.411,17.8155 C72.8589972,17.6024989 72.379002,17.2875021 71.971,16.8705 C71.562998,16.4534979 71.2420012,15.9375031 71.008,15.3225 C70.7739988,14.7074969 70.657,13.995004 70.657,13.185 C70.657,12.5549968 70.758999,11.9625028 70.963,11.4075 C71.167001,10.8524972 71.4594981,10.3695021 71.8405,9.9585 C72.2215019,9.54749794 72.6864973,9.2220012 73.2355,8.982 C73.7845027,8.7419988 74.4039966,8.622 75.094,8.622 Z M75.139,10.215 C74.4909968,10.215 73.9840018,10.3979982 73.618,10.764 C73.2519982,11.1300018 73.0180005,11.6489966 72.916,12.321 L77.092,12.321 C77.092,12.0329986 77.0530004,11.7615013 76.975,11.5065 C76.8969996,11.2514987 76.7770008,11.028001 76.615,10.836 C76.4529992,10.643999 76.2490012,10.4925006 76.003,10.3815 C75.7569988,10.2704994 75.4690017,10.215 75.139,10.215 Z M80.899,18 L80.899,8.766 L82.204,8.766 C82.4320011,8.766 82.5909996,8.80799958 82.681,8.892 C82.7710005,8.97600042 82.8309999,9.11999898 82.861,9.324 L82.996,10.44 C83.3260017,9.86999715 83.7129978,9.42000165 84.157,9.09 C84.6010022,8.75999835 85.0989972,8.595 85.651,8.595 C86.1070023,8.595 86.4849985,8.69999895 86.785,8.91 L86.497,10.575 C86.4789999,10.6830005 86.4400003,10.7594998 86.38,10.8045 C86.3199997,10.8495002 86.2390005,10.872 86.137,10.872 C86.0469996,10.872 85.9240008,10.8510002 85.768,10.809 C85.6119992,10.7669998 85.4050013,10.746 85.147,10.746 C84.6849977,10.746 84.2890017,10.8734987 83.959,11.1285 C83.6289984,11.3835013 83.3500011,11.7569975 83.122,12.249 L83.122,18 L80.899,18 Z" id="text" fill="#2C3340"></path>
        <path d="M17.1707057,3 C17.5825421,1.83480763 18.6937812,1 20,1 C21.6568542,1 23,2.34314575 23,4 C23,5.65685425 21.6568542,7 20,7 C18.6937812,7 17.5825421,6.16519237 17.1707057,5 L5,5 L5,19 L19,19 L19,10 C19,9.44771525 19.4477153,9 20,9 C20.5522847,9 21,9.44771525 21,10 L21,20 C21,20.5522847 20.5522847,21 20,21 L4,21 C3.44771525,21 3,20.5522847 3,20 L3,4 C3,3.44771525 3.44771525,3 4,3 L17.1707057,3 Z M9.5527864,11.8944272 C8.94228822,11.5891781 8.81025202,10.7755344 9.29289322,10.2928932 L12.2928932,7.29289322 C12.6834175,6.90236893 13.3165825,6.90236893 13.7071068,7.29289322 C14.0976311,7.68341751 14.0976311,8.31658249 13.7071068,8.70710678 L11.688165,10.7260485 L14.4472136,12.1055728 C15.0577118,12.4108219 15.189748,13.2244656 14.7071068,13.7071068 L11.7071068,16.7071068 C11.3165825,17.0976311 10.6834175,17.0976311 10.2928932,16.7071068 C9.90236893,16.3165825 9.90236893,15.6834175 10.2928932,15.2928932 L12.311835,13.2739515 L9.5527864,11.8944272 Z M20,5 C20.5522847,5 21,4.55228475 21,4 C21,3.44771525 20.5522847,3 20,3 C19.4477153,3 19,3.44771525 19,4 C19,4.55228475 19.4477153,5 20,5 Z" id="icon" fill="#2C3340" fill-rule="nonzero"></path>
    </g>
</svg>