<?xml version="1.0" encoding="UTF-8"?>
<svg width="24px" height="24px" viewBox="0 0 24 24" version="1.1" xmlns="http://www.w3.org/2000/svg" xmlns:xlink="http://www.w3.org/1999/xlink">
    <!-- Generator: Sketch 49.3 (51167) - http://www.bohemiancoding.com/sketch -->
    <title>logo-icon-color-1</title>
    <desc>Created with Sketch.</desc>
    <defs></defs>
    <g id="logo-icon" stroke="none" stroke-width="1" fill="none" fill-rule="evenodd">
        <path d="M17.1707057,3 C17.5825421,1.83480763 18.6937812,1 20,1 C21.6568542,1 23,2.34314575 23,4 C23,5.65685425 21.6568542,7 20,7 C18.6937812,7 17.5825421,6.16519237 17.1707057,5 L5,5 L5,19 L19,19 L19,10 C19,9.44771525 19.4477153,9 20,9 C20.5522847,9 21,9.44771525 21,10 L21,20 C21,20.5522847 20.5522847,21 20,21 L4,21 C3.44771525,21 3,20.5522847 3,20 L3,4 C3,3.44771525 3.44771525,3 4,3 L17.1707057,3 Z M9.5527864,11.8944272 C8.94228822,11.5891781 8.81025202,10.7755344 9.29289322,10.2928932 L12.2928932,7.29289322 C12.6834175,6.90236893 13.3165825,6.90236893 13.7071068,7.29289322 C14.0976311,7.68341751 14.0976311,8.31658249 13.7071068,8.70710678 L11.688165,10.7260485 L14.4472136,12.1055728 C15.0577118,12.4108219 15.189748,13.2244656 14.7071068,13.7071068 L11.7071068,16.7071068 C11.3165825,17.0976311 10.6834175,17.0976311 10.2928932,16.7071068 C9.90236893,16.3165825 9.90236893,15.6834175 10.2928932,15.2928932 L12.311835,13.2739515 L9.5527864,11.8944272 Z M20,5 C20.5522847,5 21,4.55228475 21,4 C21,3.44771525 20.5522847,3 20,3 C19.4477153,3 19,3.44771525 19,4 C19,4.55228475 19.4477153,5 20,5 Z" id="icon" fill="#2583FD" fill-rule="nonzero"></path>
    </g>
</svg>