<?xml version="1.0" encoding="UTF-8"?>
<svg width="24px" height="24px" viewBox="0 0 24 24" version="1.1" xmlns="http://www.w3.org/2000/svg" xmlns:xlink="http://www.w3.org/1999/xlink">
    <!-- Generator: Sketch 49.3 (51167) - http://www.bohemiancoding.com/sketch -->
    <title>monitor-icon-color-4</title>
    <desc>Created with Sketch.</desc>
    <defs></defs>
    <g id="monitor-icon" stroke="none" stroke-width="1" fill="none" fill-rule="evenodd">
        <path d="M9.61803399,19 L15.9960938,19 C16.5483785,19 16.9960938,19.4477153 16.9960938,20 C16.9960938,20.5522847 16.5483785,21 15.9960938,21 L8,21 C7.25661798,21 6.77312226,20.2176875 7.10557281,19.5527864 L8.38196601,17 L4,17 C3.44771525,17 3,16.5522847 3,16 L3,4 C3,3.44771525 3.44771525,3 4,3 L20,3 C20.5522847,3 21,3.44771525 21,4 L21,16 C21,16.5522847 20.5522847,17 20,17 L14,17 C13.4477153,17 13,16.5522847 13,16 C13,15.4477153 13.4477153,15 14,15 L19,15 L19,5 L5,5 L5,15 L10,15 C10.743382,15 11.2268777,15.7823125 10.8944272,16.4472136 L9.61803399,19 Z" id="icon" fill="#46CE1F" fill-rule="nonzero"></path>
    </g>
</svg>