<?xml version="1.0" encoding="UTF-8"?>
<svg width="24px" height="24px" viewBox="0 0 24 24" version="1.1" xmlns="http://www.w3.org/2000/svg" xmlns:xlink="http://www.w3.org/1999/xlink">
    <!-- Generator: Sketch 49.3 (51167) - http://www.bohemiancoding.com/sketch -->
    <title>swatches-icon-color-5</title>
    <desc>Created with Sketch.</desc>
    <defs></defs>
    <g id="swatches-icon" stroke="none" stroke-width="1" fill="none" fill-rule="evenodd">
        <path d="M14.5857864,11.8284271 L9.29289322,6.53553391 C8.90236893,6.14500961 8.90236893,5.51184464 9.29289322,5.12132034 C9.68341751,4.73079605 10.3165825,4.73079605 10.7071068,5.12132034 L12,6.41421356 L15.2928932,3.12132034 C16.787987,1.62622655 19.212013,1.62622655 20.7071068,3.12132034 C22.2022006,4.61641413 22.2022006,7.04044011 20.7071068,8.53553391 L19.2071068,10.0355339 C18.8165825,10.4260582 18.1834175,10.4260582 17.7928932,10.0355339 C17.4023689,9.64500961 17.4023689,9.01184464 17.7928932,8.62132034 L19.2928932,7.12132034 C20.0069384,6.40727514 20.0069384,5.24957911 19.2928932,4.53553391 C18.578848,3.8214887 17.421152,3.8214887 16.7071068,4.53553391 L13.4142136,7.82842712 L18.7071068,13.1213203 C19.0976311,13.5118446 19.0976311,14.1450096 18.7071068,14.5355339 C18.3165825,14.9260582 17.6834175,14.9260582 17.2928932,14.5355339 L16,13.2426407 L8.70710678,20.5355339 C8.5195704,20.7230703 8.26521649,20.8284271 8,20.8284271 L4,20.8284271 C3.44771525,20.8284271 3,20.3807119 3,19.8284271 L3,15.8284271 C3,15.5632106 3.10535684,15.3088567 3.29289322,15.1213203 L8.79289322,9.62132034 C9.18341751,9.23079605 9.81658249,9.23079605 10.2071068,9.62132034 C10.5976311,10.0118446 10.5976311,10.6450096 10.2071068,11.0355339 L5,16.2426407 L5,18.8284271 L7.58578644,18.8284271 L14.5857864,11.8284271 Z" id="icon" fill="#8E2AF0" fill-rule="nonzero"></path>
    </g>
</svg>