<?xml version="1.0" encoding="UTF-8"?>
<svg width="16px" height="16px" viewBox="0 0 16 16" version="1.1" xmlns="http://www.w3.org/2000/svg" xmlns:xlink="http://www.w3.org/1999/xlink">
    <!-- Generator: Sketch 49.3 (51167) - http://www.bohemiancoding.com/sketch -->
    <title>Social Icons/youtube-icon-color</title>
    <desc>Created with Sketch.</desc>
    <defs></defs>
    <g id="Social-Icons/youtube-icon" stroke="none" stroke-width="1" fill="none" fill-rule="evenodd">
        <path d="M8.00141201,2 C8.00141201,2 4.64270165,2 2.40324763,2.17258883 C1.79030114,2.18382243 1.21007083,2.44584375 0.802965229,2.89524689 C0.458920366,3.40325241 0.241282827,3.98333453 0.167558981,4.58883249 C0.167558981,4.58883249 0,5.96862021 0,7.35302261 L0,8.64513152 C0,10.0295339 0.16002824,11.4065528 0.16002824,11.4065528 C0.233826654,12.0117472 0.451464118,12.591513 0.795434488,13.0992155 C1.26706342,13.5545547 1.89867515,13.8154699 2.56045184,13.8283341 C3.84067777,13.9593909 8.00141201,14 8.00141201,14 C8.00141201,14 11.3638877,13.9944624 13.6033418,13.8218736 C14.2163671,13.8109779 14.7967292,13.548897 15.2036242,13.0992155 C15.5481799,12.5917226 15.7661647,12.0118904 15.8399718,11.4065528 C15.8399718,11.4065528 16,10.0221504 16,8.64513152 L16,7.35302261 C16,5.96862021 15.8399718,4.59252423 15.8399718,4.59252423 C15.7662049,3.98689124 15.5482228,3.4067503 15.2036242,2.89893862 C14.7967292,2.44925708 14.2163671,2.18717627 13.6033418,2.17628057 C11.3638877,2 8.00141201,2 8.00141201,2 L8.00141201,2 Z M6.37194799,10.3987079 L10.6964758,7.81449008 L6.37194799,5.40470697 L6.37194799,10.3987079 L6.37194799,10.3987079 Z" id="icon" fill="#FC0D1C"></path>
    </g>
</svg>